<svg xmlns="http://www.w3.org/2000/svg" viewBox="0 0 128 144"><defs><linearGradient id="armor" x2=".8" y2="1"><stop stop-color="#8f2929"/><stop offset="1" stop-color="#32131c"/></linearGradient><radialGradient id="aura"><stop stop-color="#ff9a56" stop-opacity=".38"/><stop offset="1" stop-color="#ff9a56" stop-opacity="0"/></radialGradient></defs><ellipse cx="64" cy="75" rx="59" ry="67" fill="url(#aura)"/><ellipse cx="64" cy="135" rx="48" ry="6" fill="#080b12" opacity=".65"/><path d="M34 79Q64 64 94 79L108 127H20Z" fill="url(#armor)" stroke="#c3a5a0" stroke-width="4"/><path d="M40 84l24 23 24-23M64 106v20" fill="none" stroke="#c3a5a0" stroke-width="3"/><path d="M49 39Q64 31 79 39L78 60Q64 76 50 60Z" fill="#87a36b" stroke="#32131c" stroke-width="2"/><path d="M54 49h6m9 0h6" stroke="#10121c" stroke-width="2.5"/><path d="M51 58l-9-8 11 3m23 5 9-8-11 3" fill="#f5ead6" stroke="#32131c" stroke-width="1.5"/><path d="M43 42L39 27 52 32 64 18 76 32 89 27 85 42Z" fill="#32131c" stroke="#c3a5a0" stroke-width="3"/><path d="M16 123V27m-9 11h18" stroke="#c3a5a0" stroke-width="6"/><path d="M42 87l22 12 22-12M48 116h32" fill="none" stroke="#ff9a56" stroke-width="3"/><path d="M24 81L11 89 21 114 34 104M104 81l13 8-10 25-13-10" fill="#8f2929" stroke="#c3a5a0" stroke-width="3"/><path d="M41 37L24 20 39 25M87 37l17-17-15 5" fill="#c3a5a0" stroke="#32131c" stroke-width="2"/><path d="M22 130 Q64 139 106 130" stroke="#c3a5a0" stroke-width="3" fill="none"/><path d="M28 135H100" stroke="#32131c" stroke-width="3"/></svg>