<svg xmlns="http://www.w3.org/2000/svg" viewBox="0 0 128 144"><defs><linearGradient id="armor" x2=".8" y2="1"><stop stop-color="#8f2929"/><stop offset="1" stop-color="#32131c"/></linearGradient><radialGradient id="aura"><stop stop-color="#ff9a56" stop-opacity=".38"/><stop offset="1" stop-color="#ff9a56" stop-opacity="0"/></radialGradient></defs><ellipse cx="64" cy="75" rx="59" ry="67" fill="url(#aura)"/><ellipse cx="64" cy="135" rx="48" ry="6" fill="#080b12" opacity=".65"/><path d="M19 129V51L28 51V35H39V49H50V35H61V49H73V35H84V49H96V35H107V51H115V129Z" fill="url(#armor)" stroke="#c3a5a0" stroke-width="4"/><path d="M35 126V78h58v48M50 125V91h28v34" fill="#32131c" stroke="#c3a5a0" stroke-width="3"/><path d="M18 65h98M26 111h76" stroke="#c3a5a0" stroke-width="4"/><path d="M57 67h14v13H57Z" fill="#ff9a56"/><path d="M13 126V17h10v109M105 126V17h10v109" fill="#32131c" stroke="#c3a5a0" stroke-width="3"/><path d="M22 130 Q64 139 106 130" stroke="#c3a5a0" stroke-width="3" fill="none"/><path d="M28 135H100" stroke="#32131c" stroke-width="3"/></svg>